# xmcd
#
# Track frame offsets:
#	182
#	25525
#	46577
#	105492
#	150952
#	175530
#	195225
#	234165
#	260395
#	285495
#	321750
#
# Disc length: 4672
#
# Revision: 5
# Processed by: cddbd v1.5.1PL0 Copyright (c) Steve Scherf et al.
# Submitted via: ExactAudioCopy v0.95a5
# Normalized: r4:DSETVAR1
#
DISCID=6d123e0b
DTITLE=Various Artist - The Rough Guide To The Music Of India and Pakistan
DYEAR=1996
DGENRE=World
TTITLE0=Ali Akbar Khan and Asha Bhostle - Guru Bandana
TTITLE1=Purna Das Baul - Agun Pani
TTITLE2=Sabri Brothers - Tanam Farsuda Jan
TTITLE3=Nusrat Fateh Ali Khan - Mohe Apne Rang Main Rang Le Nijaam
TTITLE4=Musicians and Poets of Rajasthan - Kaman Song
TTITLE5=Zarsanga - Gula Sta De Killie
TTITLE6=Bismillah Khan - Thumri In Raga Khamaj
TTITLE7=Vilayat Khan - Extract From Raga Khamaj
TTITLE8=Amjad Ali Khan - Extract From Raga Bhairav
TTITLE9=Shivkumar Sharma and Harpsichord Chaurasia - Peace (Alaap)
TTITLE10=Dr N Ramani - Ninnade
EXTD=YEAR: 1996
EXTT0=
EXTT1=
EXTT2=
EXTT3=
EXTT4=
EXTT5=
EXTT6=
EXTT7=
EXTT8=
EXTT9=
EXTT10=
PLAYORDER=
